<svg width="20" height="20" viewBox="0 0 20 20" fill="none" xmlns="http://www.w3.org/2000/svg">
<path d="M0 13.616C0 14.463 0.682 15.145 2.045 16.508L3.492 17.955C4.855 19.318 5.537 20 6.384 20C7.231 20 7.914 19.318 9.277 17.955L17.955 9.277C19.318 7.913 20 7.23 20 6.384C20 5.538 19.318 4.855 17.955 3.492L16.508 2.045C15.145 0.682 14.463 0 13.616 0C12.862 0 12.24 0.54 11.152 1.618C11.182 1.64 11.2103 1.66433 11.237 1.691L12.652 3.106C12.7236 3.17522 12.7807 3.258 12.82 3.34953C12.8592 3.44105 12.8799 3.53947 12.8807 3.63906C12.8815 3.73864 12.8625 3.83739 12.8247 3.92954C12.787 4.0217 12.7312 4.10541 12.6608 4.1758C12.5903 4.24618 12.5066 4.30183 12.4144 4.3395C12.3222 4.37717 12.2234 4.3961 12.1238 4.39519C12.0243 4.39427 11.9259 4.37354 11.8344 4.33419C11.7429 4.29484 11.6602 4.23766 11.591 4.166L10.177 2.752C10.1507 2.72476 10.126 2.69604 10.103 2.666L9.03 3.739C9.06 3.761 9.08867 3.78567 9.116 3.813L11.237 5.934C11.3107 6.00266 11.3698 6.08546 11.4108 6.17746C11.4518 6.26946 11.4738 6.36877 11.4756 6.46948C11.4774 6.57018 11.4588 6.67021 11.4211 6.7636C11.3834 6.85699 11.3273 6.94182 11.256 7.01304C11.1848 7.08426 11.1 7.1404 11.0066 7.17812C10.9132 7.21584 10.8132 7.23437 10.7125 7.23259C10.6118 7.23081 10.5125 7.20877 10.4205 7.16778C10.3285 7.12679 10.2457 7.06769 10.177 6.994L8.055 4.874C8.0287 4.84643 8.00399 4.81739 7.981 4.787L6.91 5.86C6.93933 5.882 6.968 5.90667 6.996 5.934L8.41 7.348C8.54248 7.49017 8.6146 7.67822 8.61117 7.87252C8.60775 8.06682 8.52903 8.25221 8.39162 8.38962C8.25421 8.52703 8.06882 8.60575 7.87452 8.60917C7.68022 8.6126 7.49218 8.54048 7.35 8.408L5.933 6.996C5.90673 6.96876 5.88202 6.94004 5.859 6.91L4.787 7.98C4.81767 8.002 4.84633 8.02667 4.873 8.054L6.995 10.176C7.13155 10.3175 7.20706 10.507 7.20526 10.7037C7.20346 10.9003 7.12449 11.0884 6.98537 11.2274C6.84625 11.3664 6.6581 11.4451 6.46145 11.4468C6.2648 11.4484 6.07539 11.3727 5.934 11.236L3.813 9.115C3.78673 9.08776 3.76202 9.05904 3.739 9.029L2.666 10.102C2.696 10.1233 2.72467 10.148 2.752 10.176L4.166 11.59C4.29848 11.7322 4.3706 11.9202 4.36718 12.1145C4.36375 12.3088 4.28503 12.4942 4.14762 12.6316C4.01021 12.769 3.82482 12.8477 3.63052 12.8512C3.43622 12.8546 3.24817 12.7825 3.106 12.65L1.69 11.238C1.6641 11.2111 1.63973 11.1827 1.617 11.153C0.539 12.24 0 12.862 0 13.616Z" fill="black"/>
</svg>
