<svg width="16" height="19" viewBox="0 0 16 19" fill="none" xmlns="http://www.w3.org/2000/svg">
<path d="M8 19C7.71667 19 7.47934 18.904 7.288 18.712C7.09667 18.52 7.00067 18.2827 7 18V16H1C0.71667 16 0.479337 15.904 0.288004 15.712C0.0966702 15.52 0.000670115 15.2827 3.44827e-06 15C-0.000663218 14.7173 0.0953369 14.48 0.288004 14.288C0.48067 14.096 0.718003 14 1 14H15C15.2833 14 15.521 14.096 15.713 14.288C15.905 14.48 16.0007 14.7173 16 15C15.9993 15.2827 15.9033 15.5203 15.712 15.713C15.5207 15.9057 15.2833 16.0013 15 16H9V18C9 18.2833 8.904 18.521 8.712 18.713C8.52 18.905 8.28267 19.0007 8 19ZM5 8.5C5.28334 8.5 5.521 8.404 5.713 8.212C5.905 8.02 6.00067 7.78267 6 7.5C5.99934 7.21733 5.90334 6.98 5.712 6.788C5.52067 6.596 5.28334 6.5 5 6.5C4.71667 6.5 4.47934 6.596 4.288 6.788C4.09667 6.98 4.00067 7.21733 4 7.5C3.99934 7.78267 4.09534 8.02033 4.288 8.213C4.48067 8.40567 4.718 8.50133 5 8.5ZM11 8.5C11.2833 8.5 11.521 8.404 11.713 8.212C11.905 8.02 12.0007 7.78267 12 7.5C11.9993 7.21733 11.9033 6.98 11.712 6.788C11.5207 6.596 11.2833 6.5 11 6.5C10.7167 6.5 10.4793 6.596 10.288 6.788C10.0967 6.98 10.0007 7.21733 10 7.5C9.99934 7.78267 10.0953 8.02033 10.288 8.213C10.4807 8.40567 10.718 8.50133 11 8.5ZM2 13C1.71667 13 1.47934 12.904 1.288 12.712C1.09667 12.52 1.00067 12.2827 1 12V5.925C1 5.80833 1.00834 5.696 1.025 5.588C1.04167 5.48 1.06667 5.37567 1.1 5.275L2.45 1.35C2.58334 0.95 2.825 0.625 3.175 0.375C3.525 0.125 3.91667 0 4.35 0H11.65C12.0833 0 12.475 0.125 12.825 0.375C13.175 0.625 13.4167 0.95 13.55 1.35L14.9 5.275C14.9333 5.375 14.9583 5.47933 14.975 5.588C14.9917 5.69667 15 5.809 15 5.925V12C15 12.2833 14.9043 12.521 14.713 12.713C14.5217 12.905 14.284 13.0007 14 13C13.716 12.9993 13.4787 12.9033 13.288 12.712C13.0973 12.5207 13.0013 12.2833 13 12V11H3V12C3 12.2833 2.904 12.521 2.712 12.713C2.52 12.905 2.28267 13.0007 2 13ZM3.65 4H12.35L11.65 2H4.35L3.65 4ZM3 9H13V6H3V9Z" fill="black"/>
</svg>
